<svg data-v-d3f97b9e="" xmlns="http://www.w3.org/2000/svg" viewBox="0 0 363.8202159500967 163"><!----><!----><!----><g data-v-d3f97b9e="" id="10821488-005f-42e0-ad66-974b2a83e70e" fill="white" transform="matrix(5.617977869218204,0,0,5.617977869218204,-6.292135483542211,102.21347941437406)"><path d="M5.11 5.03L5.11 5.03C6.99 5.03 6.99 2.23 5.11 2.23L3.46 2.23C2.84 2.23 2.84 3.16 3.46 3.16L5.11 3.16C5.75 3.16 5.75 4.10 5.11 4.10C4.75 4.10 4.12 3.99 4.12 4.56C4.12 5.12 4.75 5.03 5.11 5.03ZM2.06 10.16L2.06 10.16L2.06 1.29L5.28 1.29C8.29 1.29 8.29 5.96 5.28 5.96L3.46 5.96C3.21 5.96 2.98 6.17 2.98 6.43L2.98 10.16C2.98 10.78 3.93 10.78 3.93 10.16L3.93 6.90L5.28 6.90C9.51 6.90 9.52 0.36 5.28 0.36L1.58 0.36C1.33 0.36 1.12 0.56 1.12 0.84L1.12 10.16C1.12 10.78 2.06 10.78 2.06 10.16ZM20.19 3.88L20.19 3.88C19.84 2.77 19.14 1.83 18.23 1.16C17.32 0.52 16.23 0.14 15.02 0.14C7.92 0.14 7.92 10.82 15.02 10.82C16.23 10.82 17.32 10.43 18.23 9.79C19.14 9.13 19.84 8.18 20.19 7.08C20.26 6.83 20.13 6.55 19.88 6.48C19.63 6.41 19.35 6.54 19.28 6.79C18.98 7.70 18.42 8.47 17.65 9.02C16.93 9.55 16.02 9.86 15.02 9.86C9.18 9.86 9.18 1.09 15.02 1.09C16.02 1.09 16.93 1.41 17.65 1.93C18.42 2.49 18.98 3.26 19.28 4.16C19.35 4.41 19.63 4.55 19.88 4.47C20.13 4.40 20.26 4.13 20.19 3.88ZM12.14 7.17L12.14 7.17C12.43 7.69 12.85 8.12 13.36 8.43C13.86 8.71 14.43 8.88 15.02 8.88C15.96 8.88 16.80 8.50 17.42 7.87C18.00 7.25 18.38 6.41 18.38 5.47C18.38 4.54 18.00 3.70 17.42 3.08C16.80 2.46 15.96 2.09 15.02 2.09C14.43 2.09 13.86 2.24 13.36 2.53C12.85 2.83 12.43 3.26 12.14 3.78C12.00 4.02 12.08 4.31 12.31 4.44C12.54 4.56 12.82 4.48 12.95 4.24C13.17 3.88 13.48 3.57 13.85 3.36C14.20 3.15 14.59 3.04 15.02 3.04C15.69 3.04 16.30 3.32 16.72 3.75C17.16 4.19 17.43 4.80 17.43 5.47C17.43 6.16 17.16 6.78 16.72 7.21C16.30 7.66 15.69 7.92 15.02 7.92C14.59 7.92 14.18 7.80 13.85 7.59C13.48 7.39 13.17 7.07 12.95 6.71C12.82 6.47 12.54 6.40 12.31 6.52C12.08 6.66 12.00 6.93 12.14 7.17ZM28.01 9.70L28.01 9.70L23.03 9.70L23.03 0.81C23.03 0.56 22.82 0.35 22.57 0.35C22.30 0.35 22.09 0.56 22.09 0.81L22.09 10.18C22.09 10.43 22.30 10.64 22.57 10.64L28.01 10.64C28.28 10.64 28.48 10.43 28.48 10.18C28.48 9.91 28.28 9.70 28.01 9.70ZM23.97 0.81L23.97 0.81L23.97 8.30C23.97 8.55 24.18 8.76 24.43 8.76L28.01 8.76C28.28 8.76 28.48 8.55 28.48 8.30C28.48 8.04 28.28 7.83 28.01 7.83L24.91 7.83L24.91 0.81C24.91 0.56 24.70 0.35 24.43 0.35C24.18 0.35 23.97 0.56 23.97 0.81ZM32.31 4.07L32.31 4.07C32.52 4.42 32.94 4.45 33.15 4.09L35.06 0.90C35.18 0.66 35.11 0.38 34.89 0.25C34.68 0.11 34.38 0.18 34.24 0.41L32.73 2.97L31.22 0.41C31.09 0.18 30.80 0.11 30.59 0.25C30.35 0.38 30.28 0.66 30.42 0.90ZM36.54 0.41L36.54 0.41L33.26 5.63C33.22 5.71 33.19 5.81 33.19 5.89L33.19 10.32C33.19 10.58 33.42 10.79 33.67 10.79C33.92 10.79 34.15 10.58 34.15 10.32L34.15 6.01L37.32 0.90C37.46 0.67 37.39 0.39 37.18 0.25C36.96 0.11 36.68 0.17 36.54 0.41ZM32.27 10.32L32.27 10.32L32.27 5.88C32.27 5.78 32.24 5.70 32.19 5.60L28.94 0.41C28.80 0.17 28.50 0.11 28.29 0.25C28.07 0.39 28.01 0.67 28.14 0.90L31.33 6.01L31.33 10.32C31.33 10.58 31.54 10.79 31.81 10.79C32.06 10.79 32.27 10.58 32.27 10.32ZM42.56 5.03L42.56 5.03C43.33 5.03 43.97 4.42 43.97 3.64C43.97 2.93 43.41 2.21 42.56 2.21L40.89 2.21C40.28 2.21 40.28 3.15 40.89 3.15L42.56 3.15C42.83 3.15 43.05 3.35 43.05 3.63C43.05 4.17 42.53 4.10 42.10 4.10C41.34 4.10 41.37 4.98 42.10 5.03C42.25 5.04 42.43 5.03 42.56 5.03ZM43.43 9.90L43.43 9.90L41.29 6.83C41.02 6.48 40.43 6.62 40.43 7.13L40.43 10.18C40.43 10.79 41.37 10.79 41.37 10.18L41.37 8.58L42.66 10.44C43.02 10.95 43.78 10.40 43.43 9.90ZM39.49 10.18L39.49 10.18L39.49 1.29L42.71 1.29C43.34 1.29 43.92 1.54 44.34 1.96C45.78 3.42 44.77 5.96 42.71 5.96C42.36 5.96 42.08 6.37 42.36 6.73L44.95 10.44C45.29 10.95 46.06 10.40 45.71 9.90L43.54 6.79C44.10 6.65 44.60 6.34 45.01 5.94C47.03 3.86 45.58 0.35 42.71 0.35L39.03 0.35C38.78 0.35 38.56 0.56 38.56 0.81L38.56 10.18C38.56 10.79 39.49 10.79 39.49 10.18ZM49.15 6.79L49.15 6.79C49.15 9.52 53.20 9.52 53.20 6.79L53.20 0.80C53.20 0.53 52.99 0.32 52.74 0.32C52.46 0.32 52.26 0.53 52.26 0.80L52.26 6.79C52.26 8.27 50.09 8.27 50.09 6.79L50.09 0.80C50.09 0.53 49.88 0.32 49.62 0.32C49.36 0.32 49.15 0.53 49.15 0.80ZM55.10 6.90L55.10 6.90L55.10 0.80C55.10 0.53 54.89 0.32 54.64 0.32C54.38 0.32 54.18 0.53 54.18 0.80L54.18 6.90C54.18 10.82 48.17 10.82 48.17 6.90L48.17 0.80C48.17 0.53 47.96 0.32 47.70 0.32C47.45 0.32 47.24 0.53 47.24 0.80L47.24 6.90C47.24 12.03 55.10 12.04 55.10 6.90ZM58.24 10.18L58.24 10.18L58.24 0.81C58.24 0.56 58.04 0.36 57.78 0.36C57.53 0.36 57.32 0.56 57.32 0.81L57.32 10.18C57.32 10.43 57.53 10.65 57.78 10.65C58.04 10.65 58.24 10.43 58.24 10.18ZM65.88 10.18L65.88 10.18L65.88 0.81C65.88 0.56 65.67 0.36 65.41 0.36C65.16 0.36 64.95 0.56 64.95 0.81L64.95 10.18C64.95 10.43 65.16 10.65 65.41 10.65C65.67 10.65 65.88 10.43 65.88 10.18ZM64.11 9.91L64.11 9.91L60.03 4.09C59.89 3.86 59.58 3.81 59.39 3.98C59.25 4.06 59.19 4.20 59.19 4.35L59.19 10.18C59.19 10.43 59.39 10.64 59.64 10.64C59.91 10.64 60.12 10.43 60.12 10.18L60.12 5.84L63.34 10.44C63.49 10.65 63.77 10.71 63.99 10.57C64.19 10.40 64.25 10.12 64.11 9.91ZM59.09 1.09L59.09 1.09L63.15 6.92C63.31 7.13 63.59 7.18 63.80 7.03C63.94 6.94 64.01 6.79 64.01 6.64L64.01 0.81C64.01 0.56 63.80 0.36 63.55 0.36C63.29 0.36 63.07 0.56 63.07 0.81L63.07 5.17L59.85 0.56C59.71 0.35 59.42 0.28 59.21 0.45C59.00 0.59 58.94 0.87 59.09 1.09Z"></path></g><!----><g data-v-d3f97b9e="" id="bd02611d-5ffd-45a9-a92a-efb4774c72f1" transform="matrix(1.592159486966513,0,0,1.592159486966513,98.20100125758877,-36.979701050842166)" stroke="none" fill="white"><path d="M55.876 23.608h-5.928c-2.481 0-4.5 2.019-4.5 4.5s2.019 4.5 4.5 4.5a1.5 1.5 0 1 0 0-3c-.827 0-1.5-.673-1.5-1.5s.673-1.5 1.5-1.5h5.928c7.444 0 13.5 6.056 13.5 13.5v2.766c0 7.444-6.056 13.5-13.5 13.5a1.5 1.5 0 1 0 0 3c9.098 0 16.5-7.402 16.5-16.5v-2.766c0-9.098-7.402-16.5-16.5-16.5z"></path><path d="M49.948 56.374c-.827 0-1.5-.673-1.5-1.5s.673-1.5 1.5-1.5h5.928c5.79 0 10.5-4.71 10.5-10.5v-2.766c0-5.79-4.71-10.5-10.5-10.5a1.5 1.5 0 1 0 0 3c4.136 0 7.5 3.364 7.5 7.5v2.766c0 4.136-3.364 7.5-7.5 7.5h-5.928c-2.481 0-4.5 2.019-4.5 4.5s2.019 4.5 4.5 4.5a1.5 1.5 0 1 0 0-3zM37.935 23.608c-2.378 0-4.311 1.859-4.47 4.197-.02.098-.03.199-.03.303v47.527c0 .104.011.205.03.303.159 2.338 2.092 4.197 4.47 4.197 2.481 0 4.5-2.019 4.5-4.5a1.5 1.5 0 1 0-3 0c0 .827-.673 1.5-1.5 1.5s-1.5-.673-1.5-1.5V28.108c0-.827.673-1.5 1.5-1.5s1.5.673 1.5 1.5a1.5 1.5 0 1 0 3 0c0-2.481-2.019-4.5-4.5-4.5z"></path><path d="M40.935 32.608a1.5 1.5 0 0 0-1.5 1.5v35.527a1.5 1.5 0 1 0 3 0V34.108a1.5 1.5 0 0 0-1.5-1.5z"></path></g><!----></svg>